<?xml version="1.0" encoding="UTF-8"?>
<!DOCTYPE svg PUBLIC "-//W3C//DTD SVG 1.1//EN" "http://www.w3.org/Graphics/SVG/1.1/DTD/svg11.dtd">
<svg xmlns="http://www.w3.org/2000/svg" version="1.1" width="192px" height="192px" style="shape-rendering:geometricPrecision; text-rendering:geometricPrecision; image-rendering:optimizeQuality; fill-rule:evenodd; clip-rule:evenodd" xmlns:xlink="http://www.w3.org/1999/xlink">
<g><path style="opacity:1" fill="#92b61f" d="M 82.5,-0.5 C 90.5,-0.5 98.5,-0.5 106.5,-0.5C 132.01,4.08737 153.677,15.754 171.5,34.5C 171.833,35.8333 172.167,37.1667 172.5,38.5C 169.401,40.5595 166.068,41.7262 162.5,42C 157.949,37.5816 153.282,33.415 148.5,29.5C 148.027,28.0937 147.027,27.427 145.5,27.5C 109.16,4.66784 74.1603,6.50117 40.5,33C 10.8555,63.5325 4.85548,98.1992 22.5,137C 18.036,138.74 13.536,138.907 9,137.5C 4.23842,125.78 1.07175,113.78 -0.5,101.5C -0.5,96.1667 -0.5,90.8333 -0.5,85.5C 1.37784,67.7432 7.71117,51.7432 18.5,37.5C 19.9063,37.0269 20.573,36.0269 20.5,34.5C 36.7676,15.0331 57.4343,3.3664 82.5,-0.5 Z"/></g>
<g><path style="opacity:0.471" fill="#404f12" d="M 145.5,27.5 C 147.027,27.427 148.027,28.0937 148.5,29.5C 146.973,29.573 145.973,28.9063 145.5,27.5 Z"/></g>
<g><path style="opacity:0.624" fill="#364212" d="M 171.5,34.5 C 173.519,35.5383 173.853,36.8716 172.5,38.5C 172.167,37.1667 171.833,35.8333 171.5,34.5 Z"/></g>
<g><path style="opacity:0.455" fill="#3b4812" d="M 20.5,34.5 C 20.573,36.0269 19.9063,37.0269 18.5,37.5C 18.427,35.9731 19.0937,34.9731 20.5,34.5 Z"/></g>
<g><path style="opacity:1" fill="#9fc620" d="M 123.5,38.5 C 130.833,38.5 138.167,38.5 145.5,38.5C 145.5,52.8333 145.5,67.1667 145.5,81.5C 138.86,87.8056 132.193,94.1389 125.5,100.5C 124.833,81.8333 124.167,63.1667 123.5,44.5C 123.5,42.5 123.5,40.5 123.5,38.5 Z"/></g>
<g><path style="opacity:1" fill="#efefef" d="M 188.5,45.5 C 188.41,48.1522 189.076,50.4855 190.5,52.5C 190.833,52.5 191.167,52.5 191.5,52.5C 191.5,55.5 191.5,58.5 191.5,61.5C 188.991,59.9401 186.324,59.1068 183.5,59C 173.64,77.3604 160.974,93.5271 145.5,107.5C 144.338,126.662 144.171,145.996 145,165.5C 145.995,164.934 146.828,164.267 147.5,163.5C 173.51,139.803 184.51,110.47 180.5,75.5C 181.906,75.0269 182.573,74.0269 182.5,72.5C 183.557,70.0587 184.89,67.7254 186.5,65.5C 188.64,70.4167 190.307,75.4167 191.5,80.5C 191.5,92.1667 191.5,103.833 191.5,115.5C 180.174,159.825 151.84,185.159 106.5,191.5C 101.5,191.5 96.5,191.5 91.5,191.5C 74.8928,189.848 59.5595,184.514 45.5,175.5C 44.7095,174.599 43.7095,173.932 42.5,173.5C 31.8889,167.406 22.5556,159.573 14.5,150C 19.8333,149.333 25.1667,149.333 30.5,150C 33.9997,152.669 37.333,155.502 40.5,158.5C 40.7496,159.922 41.583,160.922 43,161.5C 43.4995,155.509 43.6662,149.509 43.5,143.5C 38.1667,143.5 32.8333,143.5 27.5,143.5C 20.1258,143.616 12.7925,143.116 5.5,142C 34.3142,142.087 62.3142,137.42 89.5,128C 104.168,121.674 117.834,113.84 130.5,104.5C 133.764,102.906 136.431,100.573 138.5,97.5C 150.694,84.7821 161.194,70.7821 170,55.5C 170.617,54.5509 170.451,53.7175 169.5,53C 167.685,52.2432 166.019,51.4098 164.5,50.5C 164.167,49.8333 163.833,49.1667 163.5,48.5C 170.494,44.3365 177.827,40.6698 185.5,37.5C 187.663,39.6473 188.663,42.314 188.5,45.5 Z M 122.5,123.5 C 123.497,140.992 123.83,158.659 123.5,176.5C 118.534,177.627 113.534,178.627 108.5,179.5C 106.515,163.868 105.849,147.868 106.5,131.5C 112.43,129.868 117.764,127.202 122.5,123.5 Z M 81.5,139.5 C 82.5,139.5 83.5,139.5 84.5,139.5C 85.1476,152.876 84.4809,165.876 82.5,178.5C 77.3874,177.573 72.3874,176.24 67.5,174.5C 66.8912,163.245 67.5579,152.245 69.5,141.5C 73.6403,141.471 77.6403,140.804 81.5,139.5 Z"/></g>
<g><path style="opacity:0.945" fill="#8d8d8d" d="M 188.5,45.5 C 189.924,47.5145 190.59,49.8478 190.5,52.5C 189.076,50.4855 188.41,48.1522 188.5,45.5 Z"/></g>
<g><path style="opacity:0.455" fill="#5c5c5c" d="M 163.5,48.5 C 163.833,49.1667 164.167,49.8333 164.5,50.5C 161.54,49.968 161.207,49.3013 163.5,48.5 Z"/></g>
<g><path style="opacity:0.518" fill="#556b11" d="M 123.5,38.5 C 130.982,37.508 138.648,37.1746 146.5,37.5C 146.829,52.3428 146.496,67.0095 145.5,81.5C 145.5,67.1667 145.5,52.8333 145.5,38.5C 138.167,38.5 130.833,38.5 123.5,38.5 Z"/></g>
<g><path style="opacity:1" fill="#9bc120" d="M 84.5,124.5 C 83.5104,118.69 83.1771,112.69 83.5,106.5C 83.5,92.5 83.5,78.5 83.5,64.5C 91.0871,64.8142 98.5871,64.4808 106,63.5C 106.263,78.011 106.763,92.511 107.5,107C 107.167,108.833 106.833,110.667 106.5,112.5C 99.3857,116.958 92.0524,120.958 84.5,124.5 Z"/></g>
<g><path style="opacity:0.725" fill="#739017" d="M 123.5,44.5 C 124.167,63.1667 124.833,81.8333 125.5,100.5C 125.217,101.289 124.717,101.956 124,102.5C 123.5,83.1695 123.333,63.8362 123.5,44.5 Z"/></g>
<g><path style="opacity:0.463" fill="#656565" d="M 182.5,72.5 C 182.573,74.0269 181.906,75.0269 180.5,75.5C 180.427,73.9731 181.094,72.9731 182.5,72.5 Z"/></g>
<g><path style="opacity:1" fill="#94b91f" d="M 43.5,85.5 C 51.1667,85.5 58.8333,85.5 66.5,85.5C 66.6666,99.8372 66.4999,114.171 66,128.5C 59.0357,131.2 51.8691,133.2 44.5,134.5C 43.767,118.177 43.4337,101.844 43.5,85.5 Z"/></g>
<g><path style="opacity:0.796" fill="#858585" d="M 138.5,97.5 C 136.431,100.573 133.764,102.906 130.5,104.5C 132.569,101.427 135.236,99.0941 138.5,97.5 Z"/></g>
<g><path style="opacity:0.02" fill="#080901" d="M 83.5,106.5 C 83.1771,112.69 83.5104,118.69 84.5,124.5C 84.44,125.043 84.1067,125.376 83.5,125.5C 82.1826,119.012 82.1826,112.678 83.5,106.5 Z"/></g>
<g><path style="opacity:0.522" fill="#828282" d="M 145.5,107.5 C 144.846,126.53 145.513,145.197 147.5,163.5C 146.828,164.267 145.995,164.934 145,165.5C 144.171,145.996 144.338,126.662 145.5,107.5 Z"/></g>
<g><path style="opacity:0.439" fill="#707070" d="M 122.5,123.5 C 122.56,122.957 122.893,122.624 123.5,122.5C 124.827,140.662 124.827,158.662 123.5,176.5C 123.83,158.659 123.497,140.992 122.5,123.5 Z"/></g>
<g><path style="opacity:0.212" fill="#363636" d="M 106.5,131.5 C 105.849,147.868 106.515,163.868 108.5,179.5C 107.791,180.404 106.791,180.737 105.5,180.5C 105.17,163.991 105.504,147.658 106.5,131.5 Z"/></g>
<g><path style="opacity:0.749" fill="#afafaf" d="M 81.5,139.5 C 82.5676,138.566 83.901,138.232 85.5,138.5C 85.5,152.167 85.5,165.833 85.5,179.5C 84.209,179.737 83.209,179.404 82.5,178.5C 84.4809,165.876 85.1476,152.876 84.5,139.5C 83.5,139.5 82.5,139.5 81.5,139.5 Z"/></g>
<g><path style="opacity:0.118" fill="#1f1f1f" d="M 69.5,141.5 C 67.5579,152.245 66.8912,163.245 67.5,174.5C 66.5054,163.679 66.1721,152.679 66.5,141.5C 67.5,141.5 68.5,141.5 69.5,141.5 Z"/></g>
<g><path style="opacity:0.141" fill="#2e2e2e" d="M 27.5,143.5 C 32.8333,143.5 38.1667,143.5 43.5,143.5C 43.6662,149.509 43.4995,155.509 43,161.5C 41.583,160.922 40.7496,159.922 40.5,158.5C 41.1174,158.611 41.6174,158.944 42,159.5C 42.4993,154.511 42.6659,149.511 42.5,144.5C 37.3054,144.821 32.3054,144.487 27.5,143.5 Z"/></g>
<g><path style="opacity:0.016" fill="#303030" d="M 42.5,173.5 C 43.7095,173.932 44.7095,174.599 45.5,175.5C 43.8212,175.715 42.8212,175.048 42.5,173.5 Z"/></g>
</svg>
