<?xml version="1.0" encoding="UTF-8"?>
<!DOCTYPE svg PUBLIC "-//W3C//DTD SVG 1.1//EN" "http://www.w3.org/Graphics/SVG/1.1/DTD/svg11.dtd">
<svg xmlns="http://www.w3.org/2000/svg" version="1.1" width="918px" height="192px" style="shape-rendering:geometricPrecision; text-rendering:geometricPrecision; image-rendering:optimizeQuality; fill-rule:evenodd; clip-rule:evenodd" xmlns:xlink="http://www.w3.org/1999/xlink">
<g><path style="opacity:0.958" fill="#a0c820" d="M 82.5,-0.5 C 90.5,-0.5 98.5,-0.5 106.5,-0.5C 132.534,4.26856 154.701,16.2686 173,35.5C 173.749,36.635 173.583,37.635 172.5,38.5C 169.376,40.5766 166.042,41.7433 162.5,42C 135.451,14.5712 103.451,6.23791 66.5,17C 35.9008,30.2741 18.0674,53.4408 13,86.5C 10.9463,104.348 14.113,121.182 22.5,137C 18.036,138.74 13.536,138.907 9,137.5C 4.23842,125.78 1.07175,113.78 -0.5,101.5C -0.5,96.1667 -0.5,90.8333 -0.5,85.5C 4.36735,46.6394 25.034,19.8061 61.5,5C 68.514,2.70496 75.514,0.871627 82.5,-0.5 Z"/></g>
<g><path style="opacity:1" fill="#fdfefd" d="M 214.5,11.5 C 231.833,11.5 249.167,11.5 266.5,11.5C 266.5,31.1667 266.5,50.8333 266.5,70.5C 285.833,70.5 305.167,70.5 324.5,70.5C 324.5,50.8333 324.5,31.1667 324.5,11.5C 341.833,11.5 359.167,11.5 376.5,11.5C 376.5,67.5 376.5,123.5 376.5,179.5C 359.167,179.5 341.833,179.5 324.5,179.5C 324.5,156.833 324.5,134.167 324.5,111.5C 305.167,111.5 285.833,111.5 266.5,111.5C 266.5,134.167 266.5,156.833 266.5,179.5C 249.167,179.5 231.833,179.5 214.5,179.5C 214.5,123.5 214.5,67.5 214.5,11.5 Z"/></g>
<g><path style="opacity:0.994" fill="#fdfdfd" d="M 411.5,11.5 C 442.502,11.3334 473.502,11.5 504.5,12C 539.243,17.4096 559.41,37.5762 565,72.5C 566.981,88.8302 566.981,105.164 565,121.5C 557.77,156.063 536.603,175.23 501.5,179C 471.502,179.5 441.502,179.667 411.5,179.5C 411.5,123.5 411.5,67.5 411.5,11.5 Z M 463.5,50.5 C 475.47,49.7879 487.137,51.2879 498.5,55C 504.469,58.6432 508.636,63.8099 511,70.5C 515.16,86.7514 515.493,103.085 512,119.5C 509.359,130.476 502.526,136.976 491.5,139C 482.204,140.182 472.87,140.682 463.5,140.5C 463.5,110.5 463.5,80.5 463.5,50.5 Z"/></g>
<g><path style="opacity:1" fill="#a0c920" d="M 593.5,11.5 C 636.5,11.5 679.5,11.5 722.5,11.5C 722.5,23.5 722.5,35.5 722.5,47.5C 696.833,47.5 671.167,47.5 645.5,47.5C 645.5,57.1667 645.5,66.8333 645.5,76.5C 667.5,76.5 689.5,76.5 711.5,76.5C 711.5,87.8333 711.5,99.1667 711.5,110.5C 689.5,110.5 667.5,110.5 645.5,110.5C 645.5,133.5 645.5,156.5 645.5,179.5C 628.167,179.5 610.833,179.5 593.5,179.5C 593.5,123.5 593.5,67.5 593.5,11.5 Z"/></g>
<g><path style="opacity:0.99" fill="#a0c821" d="M 738.5,12.5 C 757.671,11.1722 777.004,11.1722 796.5,12.5C 806.585,29.0019 816.419,45.6686 826,62.5C 835.3,45.7047 844.8,29.0381 854.5,12.5C 873.491,11.3336 892.491,11.167 911.5,12C 894.167,39 876.833,66 859.5,93C 878.748,121.495 897.748,150.162 916.5,179C 896.825,179.833 877.158,179.666 857.5,178.5C 846.469,161.3 835.635,143.966 825,126.5C 814.365,143.966 803.531,161.3 792.5,178.5C 772.842,179.666 753.175,179.833 733.5,179C 752.515,149.99 771.515,120.99 790.5,92C 773.522,65.1953 756.189,38.6953 738.5,12.5 Z"/></g>
<g><path style="opacity:0.961" fill="#a0c820" d="M 123.5,37.5 C 131.167,37.5 138.833,37.5 146.5,37.5C 146.667,52.1705 146.5,66.8371 146,81.5C 138.364,88.1352 131.03,95.1352 124,102.5C 123.5,80.8359 123.333,59.1692 123.5,37.5 Z"/></g>
<g><path style="opacity:0.949" fill="#fdfdfd" d="M 106.5,191.5 C 101.5,191.5 96.5,191.5 91.5,191.5C 60.8355,187.164 35.1688,173.331 14.5,150C 19.8333,149.333 25.1667,149.333 30.5,150C 34.3333,153.167 38.1667,156.333 42,159.5C 42.4993,154.511 42.6659,149.511 42.5,144.5C 30.1232,144.33 17.7898,143.497 5.5,142C 34.3142,142.087 62.3142,137.42 89.5,128C 124.945,112.718 151.945,88.2179 170.5,54.5C 167.72,52.3957 164.72,50.5624 161.5,49C 169.593,44.4457 177.927,40.7791 186.5,38C 189.061,45.4072 191.395,52.9072 193.5,60.5C 193,60.8333 192.5,61.1667 192,61.5C 189.256,60.0261 186.423,59.1927 183.5,59C 173.678,77.1656 161.178,93.3322 146,107.5C 145.167,126.176 145.334,144.842 146.5,163.5C 173.219,141.029 184.219,112.362 179.5,77.5C 181.313,73.2095 183.646,69.2095 186.5,65.5C 197.732,98.7128 192.898,129.379 172,157.5C 154.578,177.46 132.744,188.794 106.5,191.5 Z M 122.5,123.5 C 123.497,140.992 123.83,158.659 123.5,176.5C 117.911,177.884 112.245,178.884 106.5,179.5C 106.167,163.486 106.501,147.486 107.5,131.5C 113.007,129.583 118.007,126.916 122.5,123.5 Z M 80.5,139.5 C 81.8333,139.5 83.1667,139.5 84.5,139.5C 84.5,152.5 84.5,165.5 84.5,178.5C 78.9419,178.11 73.6086,176.777 68.5,174.5C 67.1667,163.833 67.1667,153.167 68.5,142.5C 72.669,141.703 76.669,140.703 80.5,139.5 Z"/></g>
<g><path style="opacity:0.98" fill="#a0c820" d="M 105.5,63.5 C 106.262,77.838 106.929,92.338 107.5,107C 107.167,108.833 106.833,110.667 106.5,112.5C 98.9955,117.087 91.3288,121.42 83.5,125.5C 83.1974,105.189 83.1974,84.8554 83.5,64.5C 91.0191,64.825 98.3524,64.4916 105.5,63.5 Z"/></g>
<g><path style="opacity:0.971" fill="#a0c820" d="M 43.5,85.5 C 51.1667,85.5 58.8333,85.5 66.5,85.5C 66.6666,99.8372 66.4999,114.171 66,128.5C 59.0357,131.2 51.8691,133.2 44.5,134.5C 43.767,118.177 43.4337,101.844 43.5,85.5 Z"/></g>
</svg>
